PathFileType	4	(X/Y/Z)	Walk1_0-155.trc
DataRate	CameraRate	NumFrames	NumMarkers	Units	OrigDataRate	OrigDataStartFrame	OrigNumFrames
30	30	5	22	m	30	38	155
Frame#	Time	Hip			RHip			RKnee			RAnkle			RBigToe			RSmallToe			RHeel			LHip			LKnee			LAnkle			LBigToe			LSmallToe			LHeel			Neck			Head			Nose			RShoulder			RElbow			RWrist			LShoulder			LElbow			LWrist		
		X1	Y1	Z1	X2	Y2	Z2	X3	Y3	Z3	X4	Y4	Z4	X5	Y5	Z5	X6	Y6	Z6	X7	Y7	Z7	X8	Y8	Z8	X9	Y9	Z9	X10	Y10	Z10	X11	Y11	Z11	X12	Y12	Z12	X13	Y13	Z13	X14	Y14	Z14	X15	Y15	Z15	X16	Y16	Z16	X17	Y17	Z17	X18	Y18	Z18	X19	Y19	Z19	X20	Y20	Z20	X21	Y21	Z21	X22	Y22	Z22
39	1.3	-2.114791618083606	0.8406516552489631	0.37597867700401644	-2.0675198858397197	0.8301372350048278	0.4692517165416446	-1.9900994246134618	0.48752363650029307	0.43537939387386443	-2.010937789314245	0.09790861413835487	0.43986780522794205	-1.831228010038519	0.002934384186819378	0.41258578028113996	-1.8660011847815186	0.001181898211502871	0.5078799086831518	-2.0726384319426847	0.01806425652624608	0.42194615670467805	-2.132823186164258	0.82572475535479	0.28177158747135306	-2.079696118626929	0.44389184279031485	0.27823182150087383	-2.403264856638163	0.1751565796164617	0.2917586877146381	-2.34133345482602	-0.01690606363054103	0.28737177966799937	-2.384703395830331	0.00913018744371036	0.23674003594940182	-2.456333030410869	0.18227291213400815	0.2779624942722796	-2.1270773086944463	1.5177295404630398	0.3357078479365113	-2.0491033132470267	1.7949352037889836	0.32501167185739166	-1.979859407927637	1.6452558269551494	0.3477241478495828	-2.144356519268435	1.4065900724843081	0.5283130237293963	-2.0819268540374893	1.08651037798976	0.6328536400021122	-2.1091062005426298	0.8445734242534079	0.644399533856288	-2.179141467701271	1.4237919663908014	0.13307753630930966	-2.131328633861605	1.091570522374008	0.13231069485327765	-2.0798916004446117	0.834069204453941	0.13527397230865065
40	1.3333333333333333	-2.099515885799596	0.846644657393724	0.37109607497842134	-2.0654374129559105	0.8330613307120933	0.4665641926951101	-1.959754073295779	0.4724424481131344	0.4653468456948172	-2.0130811974456715	0.09899881482705702	0.44039912355080585	-1.830477298068457	0.01128469571369313	0.42609928353903287	-1.8470767301770765	0.0074045024887029335	0.5103034806933259	-2.107581794773786	0.005045475155298668	0.4235591552466135	-2.1127846818365765	0.8304975580486319	0.2783112958501071	-2.007645952124044	0.45621525723682826	0.28215093976633154	-2.3471620878139468	0.19618138001717367	0.30200689995749014	-2.304904072976846	-0.010666913564717636	0.29246570332708266	-2.345408642279421	0.017537026555925875	0.2447020196946845	-2.429605580128405	0.19110232276461014	0.3039576031158895	-2.0995850433013303	1.5239308801827045	0.3426291922347361	-2.013019450419485	1.7802844461825809	0.3902652362233174	-1.9522514350236828	1.6534677343743511	0.3512310241233471	-2.1120379417911024	1.4127513875867737	0.5355415718241503	-2.0526356914204755	1.0892530458759764	0.6324829178032896	-2.0507615409220334	0.8497289570610502	0.6441334548529514	-2.155910939571409	1.436012741544209	0.1393150978616274	-2.1085283859095516	1.1016692831711243	0.1377599783613532	-2.0557038803617784	0.8554768951342787	0.12238639244757275
41	1.3666666666666667	-2.071948793421582	0.8527514684850404	0.37234656603916794	-2.0460912687996844	0.8309234059920739	0.46751353044646754	-1.9701096609192361	0.4701043055558041	0.4711408034933097	-2.039890052377656	0.08386578361902046	0.425953199464137	-1.8169983408656234	0.010564145893390239	0.43201187780741324	-1.8456256936671365	0.00044515299384817567	0.5039830160220934	-2.106430364082674	0.00526792825225421	0.42205065844640216	-2.07228038191897	0.8335419000962864	0.28056305596842623	-1.9435010129003638	0.4802690325916146	0.2810184389292903	-2.2818788923995386	0.21645065722144916	0.3074774254515736	-2.2223465452729974	0.003202450338525862	0.29754672744996025	-2.261937913692194	0.03559831932160877	0.24879559171072696	-2.363759227987985	0.2111801742803257	0.3031992415972481	-2.0715371758479897	1.5346778494502942	0.34926358104722116	-2.0060949433957234	1.7826199059303933	0.38163831842725143	-1.9257484171162944	1.6611960877107528	0.35367958038798575	-2.086327877240153	1.4182209231899352	0.5393255381246751	-2.0474827930194586	1.0961184402202386	0.6280974856537115	-1.9960590644045304	0.8517536060565729	0.6476208067109224	-2.1285437468551356	1.4446974696253962	0.15056918344971626	-2.0873360204630163	1.1087336876046496	0.14128244458781375	-2.036803781980558	0.861883242853196	0.12373320861862586
42	1.4	-2.0429836361367806	0.8554064518166168	0.37480421513924367	-2.018421697161665	0.8302642652943556	0.4711806576779652	-1.9769929552867047	0.4612770382229908	0.4737808270755634	-2.012850003809999	0.1004735170498725	0.44451229949211096	-1.8292346719998218	0.004835480241138713	0.4452001335943018	-1.848208065922759	0.003341111978816877	0.508073244389859	-2.072543442764928	0.017694481377091256	0.42497896015310077	-2.042705468801772	0.8382896523754252	0.27765935651273776	-1.8728303466511529	0.5009088689564634	0.28431988375953465	-2.2077353823816495	0.22076751531875677	0.3138195233509074	-2.1222886637666942	0.017129221021826367	0.28654671858957226	-2.1712992721281545	0.04741724692325613	0.24036657924258958	-2.2820335370344265	0.20778524230835393	0.31055023127760434	-2.0436026537000425	1.5420421123195538	0.3539500119864232	-1.9772435027935065	1.7876820966858014	0.3871726732102684	-1.8960244483217656	1.6655531811839561	0.35943296560103677	-2.059143919113531	1.4227856769501674	0.5429425165077009	-2.0072771682363006	1.096387140317383	0.6289442785487769	-1.933078399042829	0.8594185110405901	0.6497150829731728	-2.1048270741676056	1.4484763026095178	0.152541457365207	-2.095682937563013	1.1280287762018963	0.10684150189149294	-2.0162208106412907	0.8649703860871529	0.12497511509029958
43	1.4333333333333333	-2.0161074113129147	0.8591896865161597	0.37869737401411024	-1.9982511322065775	0.8345434187365812	0.47417880960515835	-1.9726137719368217	0.46077768181343887	0.4739663368840232	-2.0222058358417407	0.1026228022709894	0.44355136881516005	-1.8262389145797158	0.005180595583811221	0.43890713661640346	-1.8731328460084808	-0.004468845059694381	0.5130606576403602	-2.0762896799590984	0.0299968180713143	0.42577794303056704	-2.014432099653003	0.8446139639303707	0.27708604359824374	-1.8075541911770494	0.5196850709110742	0.2902254757507268	-2.0910683386569	0.21962415781192968	0.2962148577417735	-1.974490798689223	0.038792323372368244	0.2992035903752527	-2.0325169151174114	0.0620587756472432	0.2444677726691956	-2.1796951141164578	0.18654179437706025	0.2991201340071675	-2.0145833495878227	1.5462573069442924	0.35687137731228746	-1.9507921918051894	1.7941860260928806	0.38819379182806435	-1.865077841319228	1.6719627984288064	0.36590938966699765	-2.035375870599565	1.431613646865247	0.5475333431098586	-1.9669766883650552	1.1066261734081564	0.6334889412201397	-1.870787958895961	0.8717772504210572	0.6495015333310654	-2.0799129025523326	1.4498621187318455	0.15675879851646632	-2.075080627048256	1.1303857184660613	0.10979469225463166	-1.9760298041307862	0.8722128114842936	0.126671886681856
